<?xml version="1.0" encoding="UTF-8"?>
<svg id="_图层_2" data-name="图层 2" xmlns="http://www.w3.org/2000/svg" viewBox="0 0 800.6 788.8">
  <path d="M798.5,244.4c7.7,75.4-8.2,389.2-11.4,449.7-.6,10.5-2.7,20.9-6.8,30.6-19.9,47.9-64.2,50.1-64.2,50.1h0c-163.6,31.3-635,0-635,0-58.7-5.7-66.9-76.5-66.9-76.5h0C-10.4,562.6,5.6,221.4,5.6,221.4s0,0,0,0c0,0,498.6-12.2,779.3-.3s8.1,2.9,9.6,6.8l.4,1.2c1.9,4.9,3.1,10.1,3.6,15.3ZM129.6,331.8l125,119.2c8.2,7.9,8.4,20.7.3,28.8l-125.4,125.3c-.7.7-1.3,1.4-1.9,2.1-2,2.7-6.2,9-5.5,15s4.8,26.3,25.5,32c2.6.7,5.3.9,8,.6s6.6-1.1,11-2.6,5.5-2.7,7.6-4.8l146.9-145.3c.3-.2.5-.5.8-.7,3.6-3.2,35.3-32.7,10.1-61.3-.4-.5-.9-1-1.4-1.4l-158-148.3s-10.7-10.4-21.1-8.3-28.3,20-29.5,25.3-3.2,16.4,5.7,23.1,1.2.9,1.7,1.4ZM341.8,599.8c-11,9.4-8.7,25.8-4.3,36.9,4.4,11.2,23.8,12.9,23.8,12.9h248.5c19,0,23-7.3,23-7.3,4.8-7.3,1.6-35.2,1.6-35.2-10.9-20.2-32.3-18.9-32.3-18.9l-240.8,2.1s-8.5,0-19.5,9.4Z" style="fill: #994ceb; stroke-width: 0px;"/>
  <path d="M800.5,171.3c0,2.2-1.7,3.9-3.6,3.7-161.3-16-643.5-7.4-780-2.7-8.1.3-11.6,2.8-11.4-6.4l.4-10.6c1.1-26.3,2.6-55.1,5.8-86.8C14.5,34.7,52,13.9,90.5,10.3c88.5-9.4,420.3-17.3,620.3-.4.3,0,.6,0,.9,0,3.1,0,20.1.1,39.5,12.6,12.2,7.8,25.1,20.3,34.9,35.1,6.3,9.4,9.8,20.8,10.3,32.6,1.2,26.7,4.6,77.5,4,81.1h0ZM217.4,68.3c-19.9,0-36,16-36,35.7s16.1,35.7,36,35.7,36-16,36-35.7-16.1-35.7-36-35.7ZM337.5,65.7c-19.9,0-36,16-36,35.7s16.1,35.7,36,35.7,36-16,36-35.7-16.1-35.7-36-35.7ZM102.2,65.7c-19.1,0-34.7,15.4-34.7,34.3s15.5,34.3,34.7,34.3,34.7-15.4,34.7-34.3-15.5-34.3-34.7-34.3Z" style="fill: #994ceb; stroke-width: 0px;"/>
</svg>